<svg width="32" height="35" viewBox="0 0 32 35" fill="none" xmlns="http://www.w3.org/2000/svg">
<path d="M29.4383 28.1955C29.2025 29.9472 28.0238 31.463 26.3734 32.1367C25.5648 32.4731 24.6893 32.5744 23.8135 32.4731C22.9716 32.3722 22.1294 32.1027 21.2539 31.598C20.0412 30.9237 18.8286 29.8799 17.414 28.3304C19.6371 25.6023 20.984 23.1097 21.4894 20.8873C21.7253 19.8428 21.7589 18.8997 21.658 18.0239C21.5234 17.182 21.2202 16.4071 20.7485 15.7335C19.7044 14.218 17.9531 13.3421 15.9995 13.3421C14.0459 13.3421 12.2946 14.2516 11.2505 15.7335C10.7787 16.4071 10.4759 17.182 10.341 18.0239C10.2064 18.8997 10.24 19.8765 10.5095 20.8873C11.0146 23.1097 12.3955 25.6359 14.5849 28.3638C13.204 29.9136 11.9577 30.9576 10.7451 31.6313C9.86957 32.1367 9.02737 32.4062 8.18551 32.5068C7.27602 32.6081 6.40017 32.4731 5.6256 32.1703C3.97519 31.4967 2.79651 29.9805 2.56065 28.2292C2.4597 27.3873 2.527 26.5454 2.86381 25.6023C2.96475 25.2651 3.13333 24.929 3.30156 24.5246C3.53743 23.9859 3.80695 23.4128 4.07613 22.8402L4.11012 22.7732C6.43382 17.7543 8.92643 12.6349 11.52 7.65031L11.6209 7.44775C11.8904 6.94303 12.1596 6.40434 12.4295 5.89895C12.6987 5.35992 13.0018 4.85453 13.3723 4.41644C14.0796 3.60789 15.0227 3.17013 16.0668 3.17013C17.1109 3.17013 18.054 3.60789 18.7613 4.41644C19.1317 4.85453 19.4349 5.35992 19.7044 5.89895C19.9739 6.40434 20.2431 6.94303 20.5126 7.44775L20.6139 7.65031C23.1735 12.6685 25.6661 17.788 27.9901 22.8069V22.8402C28.2597 23.3792 28.4952 23.9859 28.7647 24.5246C28.9333 24.929 29.1015 25.2651 29.2025 25.6023C29.472 26.4778 29.5729 27.3203 29.4383 28.1955ZM15.9995 26.6124C14.1808 24.3223 13.0018 22.1665 12.5977 20.3482C12.4295 19.5733 12.3955 18.8997 12.4968 18.2934C12.5641 17.7543 12.7663 17.2826 13.0355 16.8782C13.6754 15.9697 14.7532 15.396 15.9995 15.396C17.2458 15.396 18.3572 15.9353 18.9635 16.8782C19.2327 17.2826 19.4349 17.7543 19.5022 18.2934C19.6031 18.8997 19.5695 19.607 19.4013 20.3482C18.9971 22.1332 17.8181 24.2887 15.9995 26.6124ZM31.1897 24.861C31.0214 24.4569 30.8529 24.0192 30.6846 23.6487C30.4151 23.0427 30.1456 22.4697 29.9097 21.9307L29.8761 21.8974C27.5524 16.8448 25.0598 11.7254 22.4326 6.67385L22.3316 6.47129C22.0621 5.96591 21.7926 5.42687 21.5234 4.88818C21.1863 4.28151 20.8494 3.64221 20.3108 3.03554C19.2327 1.68829 17.6835 0.947372 16.0331 0.947372C14.3491 0.947372 12.8336 1.68829 11.7219 2.96858C11.2168 3.57457 10.8464 4.21455 10.5095 4.82122C10.24 5.35991 9.97051 5.89895 9.701 6.40434L9.60005 6.60588C7.00684 11.6581 4.48058 16.7779 2.15654 21.8301L2.12289 21.8974C1.88702 22.4361 1.6175 23.0084 1.34799 23.6151C1.17975 23.9859 1.01117 24.39 0.842937 24.8277C0.404845 26.0737 0.270255 27.2527 0.438493 28.465C0.809289 30.9913 2.49335 33.1134 4.81739 34.0562C5.6929 34.427 6.60239 34.5953 7.54553 34.5953C7.81505 34.5953 8.15186 34.5616 8.42138 34.5276C9.53276 34.3927 10.6778 34.0229 11.7892 33.3826C13.1704 32.6081 14.484 31.4967 15.9658 29.8799C17.4477 31.4967 18.7949 32.6081 20.1422 33.3826C21.2539 34.0229 22.3989 34.3927 23.5103 34.5276C23.7798 34.5616 24.1166 34.5953 24.3861 34.5953C25.3293 34.5953 26.2721 34.427 27.1143 34.0562C29.472 33.1134 31.1224 30.9576 31.4928 28.465C31.7624 27.286 31.6274 26.1077 31.1897 24.861Z" fill="white"/>
</svg>
