<svg width="27" height="33" viewBox="0 0 27 33" fill="none" xmlns="http://www.w3.org/2000/svg">
<path d="M8.62001 32.2263C9.03297 32.1888 9.48347 32.1137 9.93398 32.0012C10.1592 31.9261 10.4971 31.776 11.0602 31.5509C11.5483 31.3633 11.9237 31.2132 12.2616 31.1381C12.7496 31.0255 13.2752 30.9505 13.8008 30.9505C14.3264 30.9505 14.852 31.0255 15.34 31.1381C15.6404 31.2132 16.0533 31.3633 16.5414 31.5884C17.0294 31.8136 17.4049 31.9261 17.6677 32.0012C18.1182 32.1137 18.5687 32.1888 19.0567 32.1888C19.7325 32.1888 20.3707 32.0012 21.0089 31.6259C21.5345 31.2882 22.0225 30.8004 22.5857 30.1625C22.9236 29.7497 23.3741 29.1493 23.9747 28.2863C24.6129 27.3482 25.1385 26.335 25.6266 25.2093C25.8143 24.7966 26.002 24.3087 26.1522 23.7459C25.8143 23.6333 25.4389 23.4082 25.0259 23.1455C24.2 22.5826 23.4867 21.9072 22.9986 21.1192C22.2853 20.031 21.9099 18.7552 21.8724 17.3293C21.8724 16.166 22.1352 15.0028 22.7358 13.9896C23.1488 13.2767 23.7119 12.6013 24.3877 12.0009C24.688 11.7382 25.0259 11.4755 25.3638 11.2879C24.5379 10.0871 23.4491 9.22409 22.0976 8.69876C21.3092 8.39856 20.4458 8.21094 19.5072 8.1359C19.0192 8.09837 18.4936 8.09837 17.968 8.21094C17.555 8.28599 17.067 8.39856 16.5789 8.54866C16.2411 8.66123 15.8656 8.81133 15.34 9.03647C14.8145 9.26162 14.4766 9.37419 14.2513 9.44924C13.9134 9.56181 13.6131 9.63686 13.3879 9.63686C13.1251 9.63686 12.7496 9.56181 12.2991 9.41171C12.1865 9.37419 11.7735 9.18657 11.0227 8.9239C10.4596 8.69876 10.0091 8.54866 9.5961 8.43609C9.07051 8.32352 8.58246 8.24847 8.09442 8.24847C6.7429 8.28599 5.50401 8.62371 4.30266 9.37419C3.13886 10.0871 2.2003 11.0628 1.52455 12.2635C0.661077 13.6519 0.210571 15.4906 0.210571 17.5544C0.210571 19.4306 0.54845 21.3444 1.18667 23.3331C1.78734 25.1718 2.57572 26.7853 3.55182 28.1737C4.11495 28.9993 4.56546 29.6372 4.97842 30.125C5.54155 30.8004 6.10468 31.2882 6.63027 31.6635C7.26849 32.0387 7.90671 32.2263 8.62001 32.2263ZM17.8554 5.43417C18.4185 4.72121 18.869 3.97073 19.1693 3.10768C19.5072 2.16958 19.5823 1.269 19.5072 0.368423C18.7188 0.405947 17.8554 0.631092 16.9919 1.08138C16.1284 1.53167 15.4151 2.09453 14.8145 2.76996C14.2513 3.44539 13.8008 4.19587 13.5005 5.0214C13.1251 5.99703 13.0124 6.86008 13.1251 7.72313C13.9885 7.79818 14.852 7.61056 15.753 7.16027C16.5789 6.67246 17.2547 6.14712 17.8554 5.43417Z" fill="white"/>
</svg>
