<svg width="18" height="18" viewBox="0 0 18 18" fill="none" xmlns="http://www.w3.org/2000/svg">
<path d="M8.66044 4.47596C8.4686 5.77424 8.31474 6.86811 8.03845 8.57078C8.78554 8.55527 10.4826 8.84082 10.8557 6.51385C11.1651 4.5775 9.78722 4.39879 8.66044 4.47596Z" fill="white"/>
<path d="M15.1348 13.8389C15.4253 14.4606 15.1326 15.2462 14.5257 15.5629C14.1774 15.7446 13.78 15.914 13.3821 16.0085C12.9816 16.1034 12.3305 16.2231 11.4999 16.2559C11.4605 16.2572 11.4212 16.2581 11.3827 16.2581C10.305 16.2581 9.22546 15.6657 8.75956 14.9443C8.6393 15.1935 8.20432 15.6932 7.44357 15.9286C6.96261 16.0777 6.38262 16.2581 5.17226 16.2568C4.08792 16.2559 3.46993 15.7841 3.14237 15.3873C2.62207 14.7572 2.5456 13.9568 2.64727 13.4177L2.65258 13.3919C3.06103 11.4192 3.62156 7.83433 3.87882 6.03763L3.88148 6.01991C3.95221 5.52198 4.02383 5.02359 4.06626 4.52211C4.0875 4.26935 4.10163 4.01571 4.10429 3.7621C4.10692 3.52221 4.08352 3.28277 4.08615 3.04289C4.08881 2.8172 4.12638 2.58796 4.23688 2.38843C4.41591 2.06519 4.74436 1.81067 5.09138 1.69982C5.47199 1.57833 5.87028 1.52867 6.26591 1.48522C6.67042 1.44088 7.07531 1.39698 7.48245 1.36771C7.64514 1.35619 7.80781 1.34643 7.97047 1.33845C8.30336 1.32293 8.63709 1.31495 8.97041 1.31495C9.82047 1.31495 10.6759 1.32914 11.5127 1.49453C12.3663 1.66302 13.2278 1.98626 13.9011 2.55205C14.3621 2.93958 14.7286 3.4291 15.0031 3.9643C15.2449 4.43608 15.3426 4.93223 15.4005 5.31224C15.4655 5.73745 15.4792 6.16977 15.4421 6.59721C15.4173 6.88099 15.3775 7.12976 15.3205 7.35722C15.199 7.84141 14.9912 8.30522 14.7025 8.73576C14.382 9.21419 13.9709 9.64782 13.4462 10.0615C13.7658 10.951 14.5977 12.69 15.1348 13.8389ZM5.59179 3.13335C5.61168 3.46324 5.61476 3.79669 5.60021 4.12789C5.58515 4.46621 5.55465 4.80364 5.51577 5.13976C5.47731 5.47498 5.43044 5.80886 5.38315 6.14273C5.37782 6.17909 5.37299 6.21545 5.36767 6.25224C5.21825 7.29602 5.06176 8.33891 4.89687 9.38002C4.72405 10.4735 4.52996 11.562 4.33591 12.6519C4.24572 13.1596 4.04372 13.8105 4.32 14.2956C4.56668 14.7284 5.19836 14.7807 5.63866 14.7372C7.24287 14.5798 7.49747 14.2375 7.49747 14.2375C7.1779 13.8974 7.4555 12.346 7.77773 10.2602H8.91782L10.1109 13.7263C10.1109 13.7263 10.4628 14.8002 11.4406 14.7483C12.693 14.6822 13.6142 14.4069 13.7468 14.2548C13.3609 14.0477 12.2588 11.3997 11.6576 9.45495C11.9485 9.28513 12.2306 9.0998 12.4962 8.89227C12.8601 8.60806 13.1965 8.27996 13.4546 7.89464C13.6398 7.61794 13.7813 7.31288 13.8622 6.98919C13.9051 6.81848 13.9289 6.64023 13.944 6.46507C13.9709 6.15692 13.9608 5.84564 13.9139 5.54016C13.8693 5.2466 13.802 4.91981 13.6659 4.65421C13.4117 4.15849 13.0523 3.72617 12.5625 3.4495C11.7359 2.98304 10.7833 2.89391 9.85452 2.84469C8.84798 2.79104 7.83653 2.82297 6.83528 2.94002C6.72346 2.95333 5.58735 3.0491 5.59179 3.13335Z" fill="white"/>
</svg>
