<svg width="26" height="26" viewBox="0 0 26 26" fill="none" xmlns="http://www.w3.org/2000/svg">
<path d="M16.9867 3.37695L17.4564 3.37167C17.4566 3.37167 17.4568 3.37167 17.4569 3.37166C17.4571 3.37166 17.4572 3.37166 17.4573 3.37166C18.1386 3.36372 18.8146 3.492 19.4455 3.74898C20.0768 4.00607 20.6503 4.38679 21.1323 4.86874C21.6142 5.35069 21.995 5.92414 22.2521 6.55538C22.5092 7.18662 22.6375 7.8629 22.6295 8.54446L22.6295 8.54524L22.6236 9.01505L22.9601 9.34352L22.9605 9.34391C23.4478 9.82009 23.835 10.3889 24.0994 11.0168C24.3638 11.6448 24.5 12.3193 24.5 13.0006C24.5 13.682 24.3638 14.3565 24.0994 14.9844C23.8351 15.6122 23.448 16.1808 22.9609 16.6569C22.9608 16.6571 22.9606 16.6572 22.9605 16.6573L22.6242 16.9862L22.6295 17.4568C22.6375 18.1383 22.5092 18.8146 22.2521 19.4459C21.995 20.0771 21.6142 20.6506 21.1323 21.1325C20.6503 21.6145 20.0768 21.9952 19.4455 22.2523C18.8143 22.5094 18.138 22.6376 17.4565 22.6296L17.4557 22.6296L16.9857 22.6238L16.6572 22.9602L16.6568 22.9606C16.1806 23.4479 15.6118 23.8351 14.9838 24.0995C14.3558 24.3638 13.6814 24.5 13 24.5C12.3186 24.5 11.6442 24.3638 11.0162 24.0995C10.3884 23.8352 9.81975 23.4481 9.34363 22.961C9.34348 22.9609 9.34333 22.9607 9.34319 22.9606L9.01427 22.6243L8.54355 22.6296L8.54265 22.6296L8.5258 21.1297C8.04419 21.1354 7.5663 21.0447 7.12024 20.8631C6.67417 20.6814 6.26894 20.4124 5.92836 20.0718C5.58779 19.7313 5.31875 19.3261 5.13707 18.88L16.9867 3.37695ZM16.9867 3.37695L16.6568 3.03941C16.1806 2.5521 15.6118 2.1649 14.9838 1.90054C14.3558 1.63618 13.6814 1.5 13 1.5C12.3186 1.5 11.6442 1.63618 11.0162 1.90054C10.3882 2.1649 9.81939 2.5521 9.34318 3.03941L9.34198 3.04064L9.01357 3.37748M16.9867 3.37695L9.01357 3.37748M9.01357 3.37748L8.54434 3.37168L8.54355 3.37167C7.862 3.3636 7.18571 3.49189 6.55445 3.74898L7.12024 5.13819L6.55445 3.74898C5.9232 4.00607 5.34971 4.38679 4.86774 4.86874C4.38576 5.35068 4.00501 5.92414 3.74789 6.55538C3.49088 7.18635 3.36258 7.86231 3.37053 8.54356C3.37053 8.54369 3.37053 8.54383 3.37053 8.54397C3.37053 8.54413 3.37054 8.54429 3.37054 8.54446L3.37582 9.01505L3.03955 9.34391C3.0394 9.34405 3.03925 9.3442 3.0391 9.34435C2.55197 9.82044 2.16489 10.3891 1.90058 11.0168C1.6362 11.6448 1.5 12.3193 1.5 13.0006C1.5 13.682 1.6362 14.3565 1.90058 14.9844C2.16497 15.6124 2.55221 16.1812 3.03955 16.6573L3.03994 16.6577L3.37635 16.9862L9.01357 3.37748ZM15.0578 10.683L15.3416 10.9668L15.0577 10.683L15.5002 11.1256L15.5003 11.1256L15.0578 10.683ZM10.3172 12.5581L10.317 12.5584L10.3172 12.5581ZM10.1875 12.6877L10.3172 12.5581L10.1875 12.6877Z" fill="#22B5A3" stroke="white" stroke-width="3"/>
</svg>
